<mxfile host="app.diagrams.net" modified="2023-11-30T16:49:35.379Z" agent="Mozilla/5.0 (Windows NT 10.0; Win64; x64) AppleWebKit/537.36 (KHTML, like Gecko) Chrome/119.0.0.0 Safari/537.36" etag="CBaea6U87ypn4vRMCeRM" version="22.1.5" type="github">
  <diagram name="Сторінка-1" id="wsyRnkK20nKrxmQFOX2D">
    <mxGraphModel dx="1300" dy="711" grid="0" gridSize="10" guides="1" tooltips="1" connect="1" arrows="1" fold="1" page="1" pageScale="1" pageWidth="827" pageHeight="1169" math="0" shadow="0">
      <root>
        <mxCell id="0" />
        <mxCell id="1" parent="0" />
        <mxCell id="AxSoyxzu9PunkMs0Nn3e-5" style="edgeStyle=orthogonalEdgeStyle;rounded=0;orthogonalLoop=1;jettySize=auto;html=1;exitX=0.5;exitY=1;exitDx=0;exitDy=0;entryX=0.5;entryY=0;entryDx=0;entryDy=0;" edge="1" parent="1" source="AxSoyxzu9PunkMs0Nn3e-1" target="AxSoyxzu9PunkMs0Nn3e-4">
          <mxGeometry relative="1" as="geometry" />
        </mxCell>
        <mxCell id="AxSoyxzu9PunkMs0Nn3e-1" value="&lt;b&gt;&lt;font style=&quot;font-size: 13px;&quot;&gt;Start&lt;/font&gt;&lt;/b&gt;" style="ellipse;whiteSpace=wrap;html=1;fillColor=#fff2cc;strokeColor=#d6b656;" vertex="1" parent="1">
          <mxGeometry x="310" y="20" width="140" height="60" as="geometry" />
        </mxCell>
        <mxCell id="AxSoyxzu9PunkMs0Nn3e-7" style="edgeStyle=orthogonalEdgeStyle;rounded=0;orthogonalLoop=1;jettySize=auto;html=1;exitX=1;exitY=0.5;exitDx=0;exitDy=0;entryX=0;entryY=0.5;entryDx=0;entryDy=0;" edge="1" parent="1" source="AxSoyxzu9PunkMs0Nn3e-2" target="AxSoyxzu9PunkMs0Nn3e-3">
          <mxGeometry relative="1" as="geometry" />
        </mxCell>
        <mxCell id="AxSoyxzu9PunkMs0Nn3e-18" style="edgeStyle=orthogonalEdgeStyle;rounded=0;orthogonalLoop=1;jettySize=auto;html=1;exitX=0.5;exitY=1;exitDx=0;exitDy=0;entryX=0.5;entryY=0;entryDx=0;entryDy=0;" edge="1" parent="1" source="AxSoyxzu9PunkMs0Nn3e-2" target="AxSoyxzu9PunkMs0Nn3e-12">
          <mxGeometry relative="1" as="geometry" />
        </mxCell>
        <mxCell id="AxSoyxzu9PunkMs0Nn3e-2" value="&lt;font style=&quot;font-size: 10px;&quot;&gt;&lt;b&gt;Does index &quot;i&quot; exceed the list length?&lt;/b&gt;&lt;/font&gt;" style="rhombus;whiteSpace=wrap;html=1;fillColor=#ffe6cc;strokeColor=#d79b00;" vertex="1" parent="1">
          <mxGeometry x="320" y="190" width="120" height="80" as="geometry" />
        </mxCell>
        <mxCell id="AxSoyxzu9PunkMs0Nn3e-8" style="edgeStyle=orthogonalEdgeStyle;rounded=0;orthogonalLoop=1;jettySize=auto;html=1;exitX=0.5;exitY=0;exitDx=0;exitDy=0;" edge="1" parent="1" source="AxSoyxzu9PunkMs0Nn3e-3">
          <mxGeometry relative="1" as="geometry">
            <mxPoint x="380" y="170" as="targetPoint" />
            <Array as="points">
              <mxPoint x="525" y="170" />
            </Array>
          </mxGeometry>
        </mxCell>
        <mxCell id="AxSoyxzu9PunkMs0Nn3e-3" value="&lt;b&gt;Input array[i]&lt;/b&gt;" style="shape=parallelogram;perimeter=parallelogramPerimeter;whiteSpace=wrap;html=1;fixedSize=1;fillColor=#dae8fc;strokeColor=#6c8ebf;" vertex="1" parent="1">
          <mxGeometry x="470" y="205" width="110" height="50" as="geometry" />
        </mxCell>
        <mxCell id="AxSoyxzu9PunkMs0Nn3e-6" style="edgeStyle=orthogonalEdgeStyle;rounded=0;orthogonalLoop=1;jettySize=auto;html=1;exitX=0.5;exitY=1;exitDx=0;exitDy=0;entryX=0.5;entryY=0;entryDx=0;entryDy=0;" edge="1" parent="1" source="AxSoyxzu9PunkMs0Nn3e-4" target="AxSoyxzu9PunkMs0Nn3e-2">
          <mxGeometry relative="1" as="geometry" />
        </mxCell>
        <mxCell id="AxSoyxzu9PunkMs0Nn3e-4" value="&lt;b&gt;Input N&lt;/b&gt;" style="shape=parallelogram;perimeter=parallelogramPerimeter;whiteSpace=wrap;html=1;fixedSize=1;fillColor=#dae8fc;strokeColor=#6c8ebf;" vertex="1" parent="1">
          <mxGeometry x="325" y="110" width="110" height="50" as="geometry" />
        </mxCell>
        <mxCell id="AxSoyxzu9PunkMs0Nn3e-9" value="NO" style="text;html=1;strokeColor=none;fillColor=none;align=center;verticalAlign=middle;whiteSpace=wrap;rounded=0;" vertex="1" parent="1">
          <mxGeometry x="430" y="205" width="60" height="30" as="geometry" />
        </mxCell>
        <mxCell id="AxSoyxzu9PunkMs0Nn3e-10" value="Update index &quot;i&quot; by adding 1 to it" style="text;html=1;strokeColor=none;fillColor=none;align=center;verticalAlign=middle;whiteSpace=wrap;rounded=0;fontSize=10;" vertex="1" parent="1">
          <mxGeometry x="370" y="150" width="240" height="30" as="geometry" />
        </mxCell>
        <mxCell id="AxSoyxzu9PunkMs0Nn3e-19" style="edgeStyle=orthogonalEdgeStyle;rounded=0;orthogonalLoop=1;jettySize=auto;html=1;exitX=0.5;exitY=1;exitDx=0;exitDy=0;entryX=0.5;entryY=0;entryDx=0;entryDy=0;" edge="1" parent="1" source="AxSoyxzu9PunkMs0Nn3e-12" target="AxSoyxzu9PunkMs0Nn3e-13">
          <mxGeometry relative="1" as="geometry" />
        </mxCell>
        <mxCell id="AxSoyxzu9PunkMs0Nn3e-21" style="edgeStyle=orthogonalEdgeStyle;rounded=0;orthogonalLoop=1;jettySize=auto;html=1;exitX=1;exitY=0.5;exitDx=0;exitDy=0;entryX=0;entryY=0.5;entryDx=0;entryDy=0;" edge="1" parent="1" source="AxSoyxzu9PunkMs0Nn3e-12">
          <mxGeometry relative="1" as="geometry">
            <mxPoint x="480" y="340" as="targetPoint" />
          </mxGeometry>
        </mxCell>
        <mxCell id="AxSoyxzu9PunkMs0Nn3e-12" value="&lt;b&gt;drone1==drone2?&lt;/b&gt;" style="rhombus;whiteSpace=wrap;html=1;fillColor=#ffe6cc;strokeColor=#d79b00;" vertex="1" parent="1">
          <mxGeometry x="320" y="300" width="120" height="80" as="geometry" />
        </mxCell>
        <mxCell id="AxSoyxzu9PunkMs0Nn3e-20" style="edgeStyle=orthogonalEdgeStyle;rounded=0;orthogonalLoop=1;jettySize=auto;html=1;exitX=0.5;exitY=1;exitDx=0;exitDy=0;entryX=0.5;entryY=0;entryDx=0;entryDy=0;" edge="1" parent="1" source="AxSoyxzu9PunkMs0Nn3e-13" target="AxSoyxzu9PunkMs0Nn3e-14">
          <mxGeometry relative="1" as="geometry" />
        </mxCell>
        <mxCell id="AxSoyxzu9PunkMs0Nn3e-22" style="edgeStyle=orthogonalEdgeStyle;rounded=0;orthogonalLoop=1;jettySize=auto;html=1;exitX=1;exitY=0.5;exitDx=0;exitDy=0;entryX=0;entryY=0.5;entryDx=0;entryDy=0;" edge="1" parent="1" source="AxSoyxzu9PunkMs0Nn3e-13">
          <mxGeometry relative="1" as="geometry">
            <mxPoint x="480" y="450" as="targetPoint" />
          </mxGeometry>
        </mxCell>
        <mxCell id="AxSoyxzu9PunkMs0Nn3e-13" value="&lt;b&gt;drone1&amp;gt;drone2?&lt;/b&gt;" style="rhombus;whiteSpace=wrap;html=1;fillColor=#ffe6cc;strokeColor=#d79b00;" vertex="1" parent="1">
          <mxGeometry x="320" y="410" width="120" height="80" as="geometry" />
        </mxCell>
        <mxCell id="AxSoyxzu9PunkMs0Nn3e-23" style="edgeStyle=orthogonalEdgeStyle;rounded=0;orthogonalLoop=1;jettySize=auto;html=1;exitX=1;exitY=0.5;exitDx=0;exitDy=0;entryX=0;entryY=0.5;entryDx=0;entryDy=0;" edge="1" parent="1" source="AxSoyxzu9PunkMs0Nn3e-14">
          <mxGeometry relative="1" as="geometry">
            <mxPoint x="480" y="560" as="targetPoint" />
          </mxGeometry>
        </mxCell>
        <mxCell id="AxSoyxzu9PunkMs0Nn3e-38" style="edgeStyle=orthogonalEdgeStyle;rounded=0;orthogonalLoop=1;jettySize=auto;html=1;exitX=0.5;exitY=1;exitDx=0;exitDy=0;" edge="1" parent="1" source="AxSoyxzu9PunkMs0Nn3e-14">
          <mxGeometry relative="1" as="geometry">
            <mxPoint x="380" y="640" as="targetPoint" />
          </mxGeometry>
        </mxCell>
        <mxCell id="AxSoyxzu9PunkMs0Nn3e-14" value="&lt;b&gt;drone1==drone2-1?&lt;/b&gt;" style="rhombus;whiteSpace=wrap;html=1;fillColor=#ffe6cc;strokeColor=#d79b00;" vertex="1" parent="1">
          <mxGeometry x="320" y="520" width="120" height="80" as="geometry" />
        </mxCell>
        <mxCell id="AxSoyxzu9PunkMs0Nn3e-24" value="YES" style="text;html=1;strokeColor=none;fillColor=none;align=center;verticalAlign=middle;whiteSpace=wrap;rounded=0;" vertex="1" parent="1">
          <mxGeometry x="370" y="270" width="60" height="30" as="geometry" />
        </mxCell>
        <mxCell id="AxSoyxzu9PunkMs0Nn3e-25" value="YES" style="text;html=1;strokeColor=none;fillColor=none;align=center;verticalAlign=middle;whiteSpace=wrap;rounded=0;" vertex="1" parent="1">
          <mxGeometry x="420" y="315" width="60" height="30" as="geometry" />
        </mxCell>
        <mxCell id="AxSoyxzu9PunkMs0Nn3e-26" value="YES" style="text;html=1;strokeColor=none;fillColor=none;align=center;verticalAlign=middle;whiteSpace=wrap;rounded=0;" vertex="1" parent="1">
          <mxGeometry x="420" y="425" width="60" height="30" as="geometry" />
        </mxCell>
        <mxCell id="AxSoyxzu9PunkMs0Nn3e-27" value="YES" style="text;html=1;strokeColor=none;fillColor=none;align=center;verticalAlign=middle;whiteSpace=wrap;rounded=0;" vertex="1" parent="1">
          <mxGeometry x="420" y="535" width="60" height="30" as="geometry" />
        </mxCell>
        <mxCell id="AxSoyxzu9PunkMs0Nn3e-28" value="NO" style="text;html=1;strokeColor=none;fillColor=none;align=center;verticalAlign=middle;whiteSpace=wrap;rounded=0;" vertex="1" parent="1">
          <mxGeometry x="370" y="380" width="60" height="30" as="geometry" />
        </mxCell>
        <mxCell id="AxSoyxzu9PunkMs0Nn3e-29" value="NO" style="text;html=1;strokeColor=none;fillColor=none;align=center;verticalAlign=middle;whiteSpace=wrap;rounded=0;" vertex="1" parent="1">
          <mxGeometry x="370" y="490" width="60" height="30" as="geometry" />
        </mxCell>
        <mxCell id="AxSoyxzu9PunkMs0Nn3e-34" style="edgeStyle=orthogonalEdgeStyle;rounded=0;orthogonalLoop=1;jettySize=auto;html=1;exitX=1;exitY=0.5;exitDx=0;exitDy=0;entryX=0.5;entryY=0;entryDx=0;entryDy=0;" edge="1" parent="1" source="AxSoyxzu9PunkMs0Nn3e-30">
          <mxGeometry relative="1" as="geometry">
            <mxPoint x="670" y="620" as="targetPoint" />
            <Array as="points">
              <mxPoint x="670" y="343" />
            </Array>
          </mxGeometry>
        </mxCell>
        <mxCell id="AxSoyxzu9PunkMs0Nn3e-30" value="&lt;b&gt;Output (drone1) (drone2)&amp;nbsp;&lt;br style=&quot;border-color: var(--border-color);&quot;&gt;&amp;nbsp;&quot;Collision&quot;&lt;/b&gt;" style="shape=parallelogram;perimeter=parallelogramPerimeter;whiteSpace=wrap;html=1;fixedSize=1;fillColor=#dae8fc;strokeColor=#6c8ebf;" vertex="1" parent="1">
          <mxGeometry x="470" y="315" width="130" height="55" as="geometry" />
        </mxCell>
        <mxCell id="AxSoyxzu9PunkMs0Nn3e-36" style="edgeStyle=orthogonalEdgeStyle;rounded=0;orthogonalLoop=1;jettySize=auto;html=1;exitX=1;exitY=0.5;exitDx=0;exitDy=0;" edge="1" parent="1" source="AxSoyxzu9PunkMs0Nn3e-31">
          <mxGeometry relative="1" as="geometry">
            <mxPoint x="670" y="620" as="targetPoint" />
          </mxGeometry>
        </mxCell>
        <mxCell id="AxSoyxzu9PunkMs0Nn3e-31" value="&lt;b&gt;Output (drone1) (drone2)&amp;nbsp;&lt;br style=&quot;border-color: var(--border-color);&quot;&gt;&amp;nbsp;&quot;Stopped&quot;&lt;/b&gt;" style="shape=parallelogram;perimeter=parallelogramPerimeter;whiteSpace=wrap;html=1;fixedSize=1;fillColor=#dae8fc;strokeColor=#6c8ebf;" vertex="1" parent="1">
          <mxGeometry x="470" y="535" width="130" height="55" as="geometry" />
        </mxCell>
        <mxCell id="AxSoyxzu9PunkMs0Nn3e-35" style="edgeStyle=orthogonalEdgeStyle;rounded=0;orthogonalLoop=1;jettySize=auto;html=1;exitX=1;exitY=0.5;exitDx=0;exitDy=0;" edge="1" parent="1" source="AxSoyxzu9PunkMs0Nn3e-32">
          <mxGeometry relative="1" as="geometry">
            <mxPoint x="670" y="620" as="targetPoint" />
          </mxGeometry>
        </mxCell>
        <mxCell id="AxSoyxzu9PunkMs0Nn3e-32" value="&lt;b&gt;Output (drone1) (drone2)&amp;nbsp;&lt;br style=&quot;border-color: var(--border-color);&quot;&gt;&amp;nbsp;&quot;Miss&quot;&lt;/b&gt;" style="shape=parallelogram;perimeter=parallelogramPerimeter;whiteSpace=wrap;html=1;fixedSize=1;fillColor=#dae8fc;strokeColor=#6c8ebf;" vertex="1" parent="1">
          <mxGeometry x="470" y="422.5" width="130" height="55" as="geometry" />
        </mxCell>
        <mxCell id="AxSoyxzu9PunkMs0Nn3e-41" style="edgeStyle=orthogonalEdgeStyle;rounded=0;orthogonalLoop=1;jettySize=auto;html=1;exitX=0.5;exitY=1;exitDx=0;exitDy=0;entryX=0;entryY=0.5;entryDx=0;entryDy=0;" edge="1" parent="1" source="AxSoyxzu9PunkMs0Nn3e-39" target="AxSoyxzu9PunkMs0Nn3e-12">
          <mxGeometry relative="1" as="geometry">
            <Array as="points">
              <mxPoint x="390" y="720" />
              <mxPoint x="280" y="720" />
              <mxPoint x="280" y="340" />
            </Array>
          </mxGeometry>
        </mxCell>
        <mxCell id="AxSoyxzu9PunkMs0Nn3e-39" value="&lt;font face=&quot;Consolas, Courier New, monospace&quot;&gt;&lt;b&gt;drone1 += array[drone1-1]; drone2 -= array[drone2-1];&lt;/b&gt;&lt;/font&gt;" style="rounded=0;whiteSpace=wrap;html=1;fillColor=#d5e8d4;strokeColor=#82b366;" vertex="1" parent="1">
          <mxGeometry x="320" y="640" width="140" height="60" as="geometry" />
        </mxCell>
        <mxCell id="AxSoyxzu9PunkMs0Nn3e-40" value="NO" style="text;html=1;strokeColor=none;fillColor=none;align=center;verticalAlign=middle;whiteSpace=wrap;rounded=0;" vertex="1" parent="1">
          <mxGeometry x="370" y="600" width="60" height="30" as="geometry" />
        </mxCell>
        <mxCell id="AxSoyxzu9PunkMs0Nn3e-42" value="&lt;span style=&quot;font-size: 13px;&quot;&gt;&lt;b&gt;Finish&lt;/b&gt;&lt;/span&gt;" style="ellipse;whiteSpace=wrap;html=1;fillColor=#fff2cc;strokeColor=#d6b656;" vertex="1" parent="1">
          <mxGeometry x="600" y="620" width="140" height="60" as="geometry" />
        </mxCell>
      </root>
    </mxGraphModel>
  </diagram>
</mxfile>
